# xmcd
#
# Track frame offsets:
# 150
# 11663
# 25334
# 35584
# 48025
# 61950
# 70938
# 84175
# 96078
# 109485
# 123350
# 136247
# 148708
# 161107
# 174747
#
# Disc length: 2502 seconds
#
#
# Revision: 0
# Processed by: cddbd v1.5.2PL0 Copyright (c) Steve Scherf et al.
# Submitted via: FreeRIP 2.945 
#
DISCID=cc09c40f
DTITLE=Banda Astilleros - Incontenible
DYEAR=2007
DGENRE=Latin
TTITLE0=No soy un Bobo
TTITLE1=La Cadena
TTITLE2=La Gacha
TTITLE3=Deja que Ladren los Perros
TTITLE4=Los Narcos Juniors
TTITLE5=El 24
TTITLE6=La Fuga del Rojo
TTITLE7=Pistoleros Famosos
TTITLE8=Laurita Garza
TTITLE9=100,000 Veces mi México
TTITLE10=Chco Fuentes
TTITLE11=De día,de Noche,de Tarde
TTITLE12=La Pistola
TTITLE13=Chuy y Mauricio
TTITLE14=Tu Mala Suerte
EXTD=
EXTT0=
EXTT1=
EXTT2=
EXTT3=
EXTT4=
EXTT5=
EXTT6=
EXTT7=
EXTT8=
EXTT9=
EXTT10=
EXTT11=
EXTT12=
EXTT13=
EXTT14=
PLAYORDER=
